<svg xmlns="http://www.w3.org/2000/svg" style="display:none">
  <symbol id="ic-shield" viewBox="0 0 24 24" fill="none" stroke="currentColor" stroke-width="2" stroke-linecap="round" stroke-linejoin="round">
    <path d="M12 2 L20 5 V11 C20 16 16.5 19.5 12 22 C7.5 19.5 4 16 4 11 V5 Z"/><path d="M9 12 l2 2 l4 -4"/>
  </symbol>
  <symbol id="ic-truck" viewBox="0 0 24 24" fill="none" stroke="currentColor" stroke-width="2" stroke-linecap="round" stroke-linejoin="round">
    <path d="M3 6 h11 v9 H3 z"/><path d="M14 9 h4 l3 3 v3 h-7 z"/><circle cx="7" cy="18" r="1.8"/><circle cx="17" cy="18" r="1.8"/>
  </symbol>
  <symbol id="ic-sparkle" viewBox="0 0 24 24" fill="none" stroke="currentColor" stroke-width="2" stroke-linecap="round" stroke-linejoin="round">
    <path d="M12 3 l1.8 5.2 L19 10 l-5.2 1.8 L12 17 l-1.8-5.2 L5 10 l5.2-1.8 Z"/><path d="M19 15 l.7 2 l2 .7 l-2 .7 l-.7 2 l-.7-2 l-2-.7 l2-.7 z"/>
  </symbol>
  <symbol id="ic-heart" viewBox="0 0 24 24" fill="none" stroke="currentColor" stroke-width="2" stroke-linecap="round" stroke-linejoin="round">
    <path d="M12 20 C7 16 3 13 3 8.5 A4.5 4.5 0 0 1 12 6 A4.5 4.5 0 0 1 21 8.5 C21 13 17 16 12 20 Z"/>
  </symbol>
  <symbol id="ic-calendar" viewBox="0 0 24 24" fill="none" stroke="currentColor" stroke-width="2" stroke-linecap="round" stroke-linejoin="round">
    <rect x="3" y="5" width="18" height="16" rx="2"/><path d="M3 9 h18 M8 3 v4 M16 3 v4"/>
  </symbol>
  <symbol id="ic-phone" viewBox="0 0 24 24" fill="none" stroke="currentColor" stroke-width="2" stroke-linecap="round" stroke-linejoin="round">
    <path d="M5 3 h4 l2 5 l-2.5 1.5 a11 11 0 0 0 5 5 L21 17 v4 h-1 A17 17 0 0 1 3 4 Z"/>
  </symbol>
  <symbol id="ic-pin" viewBox="0 0 24 24" fill="none" stroke="currentColor" stroke-width="2" stroke-linecap="round" stroke-linejoin="round">
    <path d="M12 22 C12 22 5 14.5 5 9 A7 7 0 0 1 19 9 C19 14.5 12 22 12 22 Z"/><circle cx="12" cy="9" r="2.5"/>
  </symbol>
  <symbol id="ic-star" viewBox="0 0 24 24" fill="currentColor">
    <path d="M12 2 l2.9 6.3 L22 9.2 l-5 4.7 1.2 6.9 L12 17.6 5.8 20.8 7 13.9 2 9.2 l7.1-.9 Z"/>
  </symbol>
  <symbol id="ic-check" viewBox="0 0 24 24" fill="none" stroke="currentColor" stroke-width="3" stroke-linecap="round" stroke-linejoin="round">
    <path d="M4 12 l5 5 L20 6"/>
  </symbol>
  <symbol id="ic-ruler" viewBox="0 0 24 24" fill="none" stroke="currentColor" stroke-width="2" stroke-linecap="round" stroke-linejoin="round">
    <rect x="2" y="8" width="20" height="8" rx="1.5"/><path d="M6 8v3 M10 8v4 M14 8v3 M18 8v4"/>
  </symbol>
  <symbol id="ic-sun" viewBox="0 0 24 24" fill="none" stroke="currentColor" stroke-width="2" stroke-linecap="round" stroke-linejoin="round">
    <circle cx="12" cy="12" r="4"/><path d="M12 2v2 M12 20v2 M2 12h2 M20 12h2 M5 5l1.5 1.5 M17.5 17.5 19 19 M19 5l-1.5 1.5 M6.5 17.5 5 19"/>
  </symbol>
  <symbol id="ic-users" viewBox="0 0 24 24" fill="none" stroke="currentColor" stroke-width="2" stroke-linecap="round" stroke-linejoin="round">
    <circle cx="9" cy="8" r="3.2"/><path d="M3 20 a6 6 0 0 1 12 0"/><path d="M16 5.5 a3 3 0 0 1 0 5.5 M17 20 a6 6 0 0 0-2-4.3"/>
  </symbol>
  <symbol id="ic-chat" viewBox="0 0 24 24" fill="none" stroke="currentColor" stroke-width="2" stroke-linecap="round" stroke-linejoin="round">
    <path d="M4 5 h16 v11 H9 l-4 4 V5 Z"/>
  </symbol>
</svg>
